HIERARCHY
ROOT Hips
{
	OFFSET 0.000000 0.000000 0.000000
	CHANNELS 6 Xposition Yposition Zposition Zrotation Yrotation Xrotation 
	JOINT LHipJoint
	{
		OFFSET 0.000000 0.000000 0.000000
		CHANNELS 3 Zrotation Yrotation Xrotation
		JOINT LeftUpLeg
		{
			OFFSET 1.363060 -1.794630 0.839290
			CHANNELS 3 Zrotation Yrotation Xrotation
			JOINT LeftLeg
			{
				OFFSET 2.448110 -6.726130 0.000000
				CHANNELS 3 Zrotation Yrotation Xrotation
				JOINT LeftFoot
				{
					OFFSET 2.562200 -7.039590 0.000000
					CHANNELS 3 Zrotation Yrotation Xrotation
					JOINT LeftToeBase
					{
						OFFSET 0.157640 -0.433110 2.322550
						CHANNELS 3 Zrotation Yrotation Xrotation
						End Site
						{
							OFFSET 0.000000 0.000000 0.000000
						}
					}
				}
			}
		}
	}
	JOINT RHipJoint
	{
		OFFSET 0.000000 0.000000 0.000000
		CHANNELS 3 Zrotation Yrotation Xrotation
		JOINT RightUpLeg
		{
			OFFSET -1.305520 -1.794630 0.839290
			CHANNELS 3 Zrotation Yrotation Xrotation
			JOINT RightLeg
			{
				OFFSET -2.542530 -6.985550 0.000000
				CHANNELS 3 Zrotation Yrotation Xrotation
				JOINT RightFoot
				{
					OFFSET -2.568260 -7.056230 0.000000
					CHANNELS 3 Zrotation Yrotation Xrotation
					JOINT RightToeBase
					{
						OFFSET -0.164730 -0.452590 2.363150
						CHANNELS 3 Zrotation Yrotation Xrotation
						End Site
						{
							OFFSET 0.000000 0.000000 0.000000
						}
					}
				}
			}
		}
	}
	JOINT LowerBack
	{
		OFFSET 0.000000 0.000000 0.000000
		CHANNELS 3 Zrotation Yrotation Xrotation
		JOINT Spine
		{
			OFFSET 0.028270 2.035590 -0.193380
			CHANNELS 3 Zrotation Yrotation Xrotation
			JOINT Spine1
			{
				OFFSET 0.056720 2.048850 -0.042750
				CHANNELS 3 Zrotation Yrotation Xrotation
				JOINT Neck
				{
					OFFSET 0.000000 0.000000 0.000000
					CHANNELS 3 Zrotation Yrotation Xrotation
					JOINT Neck1
					{
						OFFSET -0.054170 1.746240 0.172020
						CHANNELS 3 Zrotation Yrotation Xrotation
						JOINT Head
						{
							OFFSET 0.104070 1.761360 -0.123970
							CHANNELS 3 Zrotation Yrotation Xrotation
							End Site
							{
								OFFSET 0.000000 0.000000 0.000000
							}
						}
					}
				}
				JOINT LeftShoulder
				{
					OFFSET 0.000000 0.000000 0.000000
					CHANNELS 3 Zrotation Yrotation Xrotation
					JOINT LeftArm
					{
						OFFSET 3.362410 1.200890 -0.311210
						CHANNELS 3 Zrotation Yrotation Xrotation
						JOINT LeftForeArm
						{
							OFFSET 4.983000 -0.000000 -0.000000
							CHANNELS 3 Zrotation Yrotation Xrotation
							JOINT LeftHand
							{
								OFFSET 3.483560 -0.000000 -0.000000
								CHANNELS 3 Zrotation Yrotation Xrotation
								JOINT LeftFingerBase
								{
									OFFSET 0.000000 0.000000 0.000000
									CHANNELS 3 Zrotation Yrotation Xrotation
									JOINT LeftHandIndex1
									{
										OFFSET 0.715260 -0.000000 -0.000000
										CHANNELS 3 Zrotation Yrotation Xrotation
										End Site
										{
											OFFSET 0.000000 0.000000 0.000000
										}
									}
								}
								JOINT LThumb
								{
									OFFSET 0.000000 0.000000 0.000000
									CHANNELS 3 Zrotation Yrotation Xrotation
									End Site
									{
										OFFSET 0.000000 0.000000 0.000000
									}
								}
							}
						}
					}
				}
				JOINT RightShoulder
				{
					OFFSET 0.000000 0.000000 0.000000
					CHANNELS 3 Zrotation Yrotation Xrotation
					JOINT RightArm
					{
						OFFSET -3.136600 1.374050 -0.404650
						CHANNELS 3 Zrotation Yrotation Xrotation
						JOINT RightForeArm
						{
							OFFSET -5.241900 -0.000000 -0.000000
							CHANNELS 3 Zrotation Yrotation Xrotation
							JOINT RightHand
							{
								OFFSET -3.444170 -0.000000 -0.000000
								CHANNELS 3 Zrotation Yrotation Xrotation
								JOINT RightFingerBase
								{
									OFFSET 0.000000 0.000000 0.000000
									CHANNELS 3 Zrotation Yrotation Xrotation
									JOINT RightHandIndex1
									{
										OFFSET -0.622530 -0.000000 -0.000000
										CHANNELS 3 Zrotation Yrotation Xrotation
										End Site
										{
											OFFSET 0.000000 0.000000 0.000000
										}
									}
								}
								JOINT RThumb
								{
									OFFSET 0.000000 0.000000 0.000000
									CHANNELS 3 Zrotation Yrotation Xrotation
									End Site
									{
										OFFSET 0.000000 0.000000 0.000000
									}
								}
							}
						}
					}
				}
			}
		}
	}
}
MOTION
Frames: 8
Frame Time: 0.008333
17.193828 16.773428 2.604032 103.148484 -88.108263 -51.663555 -8.604717 -0.536785 4.069897 -7.290941 -9.501785 -58.035825 -2.275003 -1.671234 15.151318 4.247211 15.938555 -13.261081 -0.382600 0.000000 -42.788200 8.632702 0.365386 4.836794 3.422052 5.870697 -59.652302 2.889214 0.910466 15.077786 -2.880587 -7.724617 -12.422072 -0.339300 -0.000000 -63.803700 1.521248 -2.277913 -5.424788 -0.399172 -2.601289 -3.946486 -5.863267 -2.747310 1.454314 10.884916 -14.598030 -12.401410 -2.038463 -0.079903 -1.633737 0.000000 0.000000 0.000000 -2.059091 11.631004 2.214304 -62.056916 37.777463 14.563909 -2.087552 -50.320578 0.012639 1.717652 -6.200349 -0.098921 -0.112567 0.029047 -0.000000 0.000000 0.000000 0.000000 0.000000 0.000000 0.000000 14.613825 -12.374958 2.986370 64.771190 -26.769603 -5.406094 2.757889 30.936778 0.012578 -6.076439 7.477928 -0.415310 0.183707 -0.117209 -0.000000 0.000000 0.000000 0.000000 0.000000 0.000000 0.000000 
17.178947 16.683828 2.600716 105.018237 -87.972164 -52.343511 -8.512587 -0.549931 4.178763 -7.129490 -10.154702 -60.692523 -2.254650 -1.415960 17.934456 4.457723 15.978705 -14.849492 -0.843800 0.000000 -42.847800 8.578898 0.412800 5.033656 2.766800 6.472315 -62.557040 2.789340 0.530884 18.302486 -3.057479 -7.663036 -14.188291 -0.033401 0.000000 -63.325300 1.452839 -2.290948 -5.617720 -0.430409 -2.620061 -4.010778 -5.894749 -2.771148 1.411477 11.097857 -14.620428 -12.644060 -2.078660 -0.078906 -1.727020 0.000000 0.000000 0.000000 -2.279561 11.783609 2.306840 -62.319545 37.675748 13.550997 -2.037979 -50.780290 0.012287 1.794411 -6.241903 -0.103726 -0.110795 0.035300 -0.000000 0.000000 0.000000 0.000000 0.000000 0.000000 0.000000 15.088510 -12.320671 3.052469 64.785788 -26.811055 -5.544673 2.689350 31.540917 0.011832 -6.128722 7.528463 -0.421809 0.181979 -0.122682 -0.000000 0.000000 0.000000 0.000000 0.000000 0.000000 0.000000 
17.163627 16.579933 2.597464 106.061639 -87.828900 -52.170828 -8.422606 -0.545863 4.308777 -6.978142 -10.806779 -63.482752 -2.235668 -1.130446 20.865077 4.661760 15.962587 -16.486275 -1.322301 0.000000 -42.864100 8.543237 0.468647 5.244751 2.075378 7.012987 -65.581487 2.678139 0.125259 21.672870 -3.223067 -7.558275 -15.978375 0.279499 0.000000 -62.708800 1.393194 -2.305174 -5.863474 -0.459366 -2.642952 -4.086957 -5.926312 -2.799714 1.373045 11.300160 -14.608495 -12.866943 -2.124993 -0.078874 -1.814099 0.000000 0.000000 0.000000 -2.515750 11.904847 2.398237 -62.609652 37.481348 12.490054 -1.994480 -51.118896 0.011885 1.810464 -6.283541 -0.105333 -0.108323 0.041260 -0.000000 0.000000 0.000000 0.000000 0.000000 0.000000 0.000000 15.561914 -12.243526 3.114681 64.835884 -26.766300 -5.769087 2.624978 32.033104 0.011123 -6.161120 7.596820 -0.427909 0.180040 -0.128330 -0.000000 0.000000 0.000000 0.000000 0.000000 0.000000 0.000000 
17.147355 16.460807 2.594300 106.273833 -87.673640 -51.141175 -8.336497 -0.524368 4.467876 -6.823033 -11.479517 -66.400007 -2.210766 -0.816851 23.926225 4.861806 15.914513 -18.150130 -1.809100 -0.000000 -42.787199 8.528327 0.535306 5.471247 1.350987 7.473817 -68.723647 2.555177 -0.305443 25.181136 -3.375937 -7.415465 -17.779668 0.593399 0.000000 -61.936100 1.339068 -2.322240 -6.174021 -0.484612 -2.671599 -4.175466 -5.950903 -2.834569 1.347865 11.480728 -14.576713 -13.070081 -2.171475 -0.079270 -1.894338 0.000000 0.000000 0.000000 -2.738088 12.011625 2.488491 -62.940392 37.164156 11.407537 -1.958508 -51.299951 0.011498 1.788512 -6.339222 -0.104943 -0.105559 0.047173 -0.000000 0.000000 0.000000 0.000000 0.000000 0.000000 0.000000 16.001256 -12.161806 3.171585 64.926861 -26.617473 -6.054285 2.565280 32.381009 0.010467 -6.185882 7.683166 -0.434611 0.178041 -0.133990 -0.000000 0.000000 0.000000 0.000000 0.000000 0.000000 0.000000 
17.129931 16.325910 2.591429 105.666266 -87.505139 -49.271185 -8.257625 -0.488124 4.660526 -6.648100 -12.182673 -69.438335 -2.172665 -0.476605 27.111666 5.058816 15.850792 -19.823985 -2.297799 0.000000 -42.566300 8.533819 0.613271 5.714235 0.601995 7.845039 -71.971400 2.419519 -0.758686 28.813347 -3.517585 -7.249727 -19.580847 0.903500 -0.000000 -60.993000 1.294626 -2.342742 -6.557365 -0.504230 -2.707123 -4.278330 -5.966605 -2.876880 1.335660 11.630014 -14.521518 -13.248503 -2.216573 -0.080056 -1.965632 0.000000 0.000000 0.000000 -2.943191 12.094491 2.576581 -63.312130 36.745336 10.299994 -1.929747 -51.337476 0.011157 1.747170 -6.411390 -0.103751 -0.102788 0.053098 -0.000000 0.000000 0.000000 0.000000 0.000000 0.000000 0.000000 16.387870 -12.073137 3.223720 65.067863 -26.379150 -6.417870 2.511072 32.582173 0.009864 -6.196026 7.780786 -0.441013 0.175964 -0.139574 0.000000 0.000000 0.000000 0.000000 0.000000 0.000000 0.000000 
17.110969 16.175071 2.589012 104.319083 -87.321763 -46.650048 -8.189362 -0.442037 4.887987 -6.437389 -12.920030 -72.586357 -2.114043 -0.111875 30.417497 5.253352 15.786613 -21.493322 -2.784500 -0.000000 -42.156600 8.557873 0.702421 5.973351 -0.161048 8.121139 -75.305824 2.269942 -1.231529 32.554690 -3.650965 -7.079634 -21.373610 1.207600 -0.000000 -59.874701 1.264466 -2.366686 -7.016063 -0.517146 -2.750074 -4.397556 -5.974993 -2.927273 1.331341 11.743084 -14.431911 -13.397232 -2.261831 -0.081477 -2.026013 0.000000 0.000000 0.000000 -3.139650 12.134521 2.661381 -63.716733 36.267667 9.153095 -1.906482 -51.273289 0.010863 1.706528 -6.495019 -0.102760 -0.100223 0.058962 -0.000000 0.000000 0.000000 0.000000 0.000000 0.000000 0.000000 16.718569 -11.965264 3.272401 65.263724 -26.082134 -6.887578 2.462734 32.658334 0.009309 -6.180325 7.878832 -0.445517 0.173735 -0.145025 0.000000 0.000000 0.000000 0.000000 0.000000 0.000000 0.000000 
17.090128 16.008231 2.587177 102.374445 -87.118839 -43.427417 -8.133429 -0.391820 5.149000 -6.177567 -13.694075 -75.829465 -2.027936 0.273846 33.840048 5.446404 15.739544 -23.145200 -3.267501 0.000000 -41.537000 8.598956 0.803418 6.246501 -0.928661 8.297582 -78.706181 2.104767 -1.721564 36.394368 -3.779501 -6.923588 -23.153494 1.506200 0.000001 -58.591900 1.249277 -2.394737 -7.547344 -0.522189 -2.801044 -4.530860 -5.973231 -2.986124 1.340450 11.819693 -14.330608 -13.525608 -2.303553 -0.083036 -2.078064 0.000000 0.000000 0.000000 -3.314406 12.157731 2.742754 -64.146725 35.702410 8.002299 -1.887660 -51.107299 0.010627 1.699909 -6.592379 -0.103966 -0.098237 0.064901 -0.000000 0.000000 0.000000 0.000000 0.000000 0.000000 0.000000 16.984389 -11.860128 3.316735 65.498774 -25.708331 -7.418323 2.419386 32.618228 0.008772 -6.157395 7.967959 -0.449023 0.171533 -0.150192 0.000000 0.000000 0.000000 0.000000 0.000000 0.000000 0.000000 
17.067639 15.826060 2.586136 99.980586 -86.895563 -39.768214 -8.090575 -0.345175 5.437487 -5.857868 -14.496547 -79.143163 -1.908766 0.676598 37.375345 5.637427 15.722763 -24.768310 -3.747000 -0.000000 -40.705200 8.654441 0.916074 6.529391 -1.686713 8.376311 -82.139825 1.922173 -2.225307 40.314864 -3.907135 -6.802034 -24.914808 1.801799 0.000000 -57.174601 1.253331 -2.426544 -8.140584 -0.518846 -2.859863 -4.676362 -5.964073 -3.053146 1.359903 11.864536 -14.222218 -13.639051 -2.343093 -0.084773 -2.123396 0.000000 0.000000 0.000000 -3.476229 12.166323 2.819998 -64.585293 35.060969 6.858294 -1.871037 -50.874800 0.010414 1.751555 -6.695376 -0.108567 -0.096989 0.070810 -0.000000 0.000000 0.000000 0.000000 0.000000 0.000000 0.000000 17.196376 -11.758835 3.357257 65.758178 -25.266722 -7.996851 2.380352 32.497767 0.008227 -6.133278 8.037633 -0.451229 0.169415 -0.155008 0.000000 0.000000 0.000000 0.000000 0.000000 0.000000 0.000000 
